Coordinates
version=1
nRows=19
nColumns=24
inDegrees=yes

Units are S.I. units (second, meters, Newtons, ...)
Angles are in degrees.

endheader
time	pelvis_tilt	pelvis_list	pelvis_rotation	pelvis_tx	pelvis_ty	pelvis_tz	hip_flexion_r	hip_adduction_r	hip_rotation_r	knee_angle_r	ankle_angle_r	subtalar_angle_r	mtp_angle_r	hip_flexion_l	hip_adduction_l	hip_rotation_l	knee_angle_l	ankle_angle_l	subtalar_angle_l	mtp_angle_l	lumbar_extension	lumbar_bending	lumbar_rotation
      0.56700000	     -0.00631525	      2.27703754	      6.93934886	     -0.89177752	      1.01195184	      0.30698457	     24.60465345	     -3.04435945	     -6.65736182	     -1.00792880	      7.42251633	     -1.99573842	      6.97400444	    -12.09703358	      5.29989321	      8.34111975	    -13.40685752	     14.26929611	     -7.16376554	     -2.04588805	     -3.74803639	     -4.72761654	     -3.11798167
      0.57116667	      0.03970196	      2.14935643	      7.05478562	     -0.88563655	      1.01151079	      0.30723412	     24.59121921	     -2.86515086	     -6.41136847	     -1.64356066	      7.49413999	     -2.29413823	      6.98702497	    -12.13847526	      5.10745746	      8.30934674	    -14.14051025	     14.39587286	     -6.97384641	     -2.02619468	     -3.72913115	     -4.56749823	     -3.21538056
      0.57533333	      0.11218401	      2.00484086	      7.17660541	     -0.87946066	      1.01113318	      0.30748876	     24.53147450	     -2.66239560	     -6.18090441	     -2.26602129	      7.45261769	     -2.68361690	      7.00588780	    -12.19695729	      4.89088568	      8.27536470	    -14.89476558	     14.45630008	     -6.83744871	     -1.99253182	     -3.72394973	     -4.39056693	     -3.32989748
      0.57950000	      0.18054419	      1.87761014	      7.29949151	     -0.87325918	      1.01077434	      0.30777621	     24.46419758	     -2.47065324	     -5.93059410	     -2.88436098	      7.29815882	     -3.18068424	      7.04199813	    -12.23630641	      4.68722146	      8.21089116	    -15.67494187	     14.48755976	     -6.67183277	     -1.92481306	     -3.71127116	     -4.26061711	     -3.46830896
      0.58366667	      0.27187026	      1.72437207	      7.42401715	     -0.86701023	      1.01047039	      0.30805896	     24.35495664	     -2.24681036	     -5.68070288	     -3.48502977	      7.12306719	     -3.66349375	      7.08679986	    -12.29263371	      4.45600295	      8.18964418	    -16.46453561	     14.48209701	     -6.55136794	     -1.83952963	     -3.72416534	     -4.06202577	     -3.58404842
      0.58783333	      0.36096584	      1.57472938	      7.54339086	     -0.86070524	      1.01017551	      0.30838046	     24.23701717	     -2.01828271	     -5.43593621	     -4.06999788	      6.85128941	     -4.19943980	      7.14192448	    -12.33257078	      4.22363195	      8.13024540	    -17.27887255	     14.43483504	     -6.41754345	     -1.73227087	     -3.72108004	     -3.88803699	     -3.70759413
      0.59200000	      0.44846565	      1.43068600	      7.66737671	     -0.85437229	      1.00990600	      0.30871230	     24.10740499	     -1.79353020	     -5.19769468	     -4.63276498	      6.49971458	     -4.75959704	      7.20521216	    -12.36572330	      3.99271986	      8.07186044	    -18.09903970	     14.32445694	     -6.29231203	     -1.60419210	     -3.70543257	     -3.71827562	     -3.83028959
      0.59616667	      0.57109905	      1.28495005	      7.78787972	     -0.84802715	      1.00971895	      0.30908472	     23.92369662	     -1.55404948	     -4.94860422	     -5.15687970	      6.05406516	     -5.36213438	      7.28694491	    -12.41904933	      3.74957911	      7.99312682	    -18.94497477	     14.19566062	     -6.13967945	     -1.43509306	     -3.74568419	     -3.55451425	     -3.95500283
      0.60033333	      0.65753440	      1.13470480	      7.90217771	     -0.84164459	      1.00949173	      0.30949472	     23.77295761	     -1.30855999	     -4.70740992	     -5.66393693	      5.54471032	     -5.96701200	      7.38140113	    -12.41707954	      3.50511878	      7.91012597	    -19.82141592	     14.02835780	     -5.98067636	     -1.23739989	     -3.72583765	     -3.38941318	     -4.07166084
      0.60450000	      0.77124495	      0.99956479	      8.01094482	     -0.83523692	      1.00932409	      0.30995143	     23.58278187	     -1.06562852	     -4.44147159	     -6.14769951	      4.96038064	     -6.66561429	      7.51530615	    -12.44068966	      3.26294525	      7.78554881	    -20.69466409	     13.83848013	     -5.81042618	     -0.95380763	     -3.73658798	     -3.25277255	     -4.19703604
      0.60866667	      0.89066305	      0.84199469	      8.11583396	     -0.82876712	      1.00920411	      0.31043042	     23.37663662	     -0.79953686	     -4.24211079	     -6.60013316	      4.30278216	     -7.25519866	      8.99909329	    -12.45427369	      2.98410740	      7.61132268	    -21.57176435	     13.50041661	     -5.58879893	      2.04362663	     -3.72858571	     -3.08400041	     -4.11800778
      0.61283333	      0.98357915	      0.69566607	      8.22927137	     -0.82230819	      1.00906646	      0.31091564	     23.19216310	     -0.54923508	     -4.03509967	     -7.03604744	      3.60974666	     -7.84195972	      9.01438776	    -12.42346743	      2.72591635	      7.49418496	    -22.49045003	     13.17097108	     -5.47796166	      2.12139674	     -3.71415820	     -2.92560271	     -4.41834040
      0.61700000	      1.08449149	      0.53821370	      8.33317523	     -0.81580539	      1.00897834	      0.31145715	     22.98886826	     -0.27826222	     -3.82497158	     -7.44256439	      2.86486769	     -8.45044778	      9.05513354	    -12.38459059	      2.43960611	      7.30614861	    -23.42252649	     12.81505962	     -5.24566728	      2.27075346	     -3.69096264	     -2.76497086	     -4.51185717
      0.62116667	      1.18890224	      0.39457856	      8.42244349	     -0.80929991	      1.00892439	      0.31206015	     22.77964269	     -0.01310982	     -3.60074144	     -7.83925169	      2.10454629	     -9.04248717	      9.14499323	    -12.33463004	      2.15624520	      7.06572644	    -24.36462458	     12.37129810	     -4.97516899	      2.56554854	     -3.67407455	     -2.63828780	     -4.60174832
      0.62533333	      1.27926462	      0.22312017	      8.52185717	     -0.80277158	      1.00886659	      0.31264513	     22.59185433	      0.26945292	     -3.44894244	     -8.24135020	      1.32843981	     -9.57695937	      9.22077632	    -12.24406121	      1.84312290	      6.84489884	    -25.35116200	     11.94248744	     -4.74402274	      2.83594290	     -3.62587456	     -2.44800200	     -4.70149261
      0.62950000	      1.35777571	      0.06216060	      8.60636588	     -0.79624069	      1.00882728	      0.31329773	     22.41804154	      0.54772509	     -3.27578143	     -8.64432792	      0.55966739	    -10.10638431	      9.31472686	    -12.11776036	      1.52902558	      6.55821921	    -26.36037190	     11.42632994	     -4.45696695	      3.18171868	     -3.56734026	     -2.29670793	     -4.78496579
      0.63366667	      1.46775013	     -0.08020237	      8.68472815	     -0.78972442	      1.00886307	      0.31401326	     22.20628628	      0.81704752	     -3.08280392	     -9.04115531	     -0.17798400	    -10.64815566	      9.48040499	    -12.01118324	      1.21606216	      6.24863395	    -27.37522915	     10.79875775	     -4.12360678	      3.79799838	     -3.55364172	     -2.19908618	     -4.85850490
      0.63783333	      1.55170253	     -0.27486356	      8.75920728	     -0.78316954	      1.00887793	      0.31469523	     22.04420500	      1.12594030	     -2.98605854	     -9.47356280	     -0.89742952	    -11.06917541	      9.60354676	    -11.83998778	      0.85090915	      5.91741592	    -28.44812385	     10.22303471	     -3.84509721	      4.31991849	     -3.48718471	     -1.97944681	     -4.93415235
      0.64200000	      1.72285841	     -0.44672894	      8.82224455	     -0.77661769	      1.00907170	      0.31541446	     21.77755268	      1.42865148	     -2.87991310	     -9.89319399	     -1.52383583	    -11.45800342	     10.63886340	    -11.77594212	      0.49330313	      5.60919338	    -29.45962082	      9.29470803	     -3.73575770	      8.87087589	     -3.53777604	     -1.79617339	     -4.90400887
